<svg xmlns="http://www.w3.org/2000/svg" viewBox="0 0 180 120" role="img" aria-labelledby="title desc">
  <title id="title">European Union flag</title>
  <desc id="desc">Blue flag with a circle of twelve yellow stars.</desc>
  <rect width="180" height="120" rx="8" fill="#003399"/>
  <g fill="#FFCC00">
    <polygon points="90,22 91.76,27.57 97.62,27.57 92.88,31.01 94.64,36.58 90,33.14 85.36,36.58 87.12,31.01 82.38,27.57 88.24,27.57"/>
    <polygon points="117,29.23 118.76,34.8 124.62,34.8 119.88,38.24 121.64,43.8 117,40.37 112.36,43.8 114.12,38.24 109.38,34.8 115.24,34.8"/>
    <polygon points="136.77,49 138.53,54.57 144.39,54.57 139.65,58.01 141.41,63.58 136.77,60.14 132.13,63.58 133.89,58.01 129.15,54.57 135.01,54.57"/>
    <polygon points="144,76 145.76,81.57 151.62,81.57 146.88,85.01 148.64,90.58 144,87.14 139.36,90.58 141.12,85.01 136.38,81.57 142.24,81.57"/>
    <polygon points="136.77,103 138.53,108.57 144.39,108.57 139.65,112.01 141.41,117.58 136.77,114.14 132.13,117.58 133.89,112.01 129.15,108.57 135.01,108.57"/>
    <polygon points="117,122.77 118.76,128.34 124.62,128.34 119.88,131.78 121.64,137.35 117,133.91 112.36,137.35 114.12,131.78 109.38,128.34 115.24,128.34" transform="translate(0 -36.77)"/>
    <polygon points="90,130 91.76,135.57 97.62,135.57 92.88,139.01 94.64,144.58 90,141.14 85.36,144.58 87.12,139.01 82.38,135.57 88.24,135.57" transform="translate(0 -48)"/>
    <polygon points="63,122.77 64.76,128.34 70.62,128.34 65.88,131.78 67.64,137.35 63,133.91 58.36,137.35 60.12,131.78 55.38,128.34 61.24,128.34" transform="translate(0 -36.77)"/>
    <polygon points="43.23,103 44.99,108.57 50.85,108.57 46.11,112.01 47.87,117.58 43.23,114.14 38.59,117.58 40.35,112.01 35.61,108.57 41.47,108.57"/>
    <polygon points="36,76 37.76,81.57 43.62,81.57 38.88,85.01 40.64,90.58 36,87.14 31.36,90.58 33.12,85.01 28.38,81.57 34.24,81.57"/>
    <polygon points="43.23,49 44.99,54.57 50.85,54.57 46.11,58.01 47.87,63.58 43.23,60.14 38.59,63.58 40.35,58.01 35.61,54.57 41.47,54.57"/>
    <polygon points="63,29.23 64.76,34.8 70.62,34.8 65.88,38.24 67.64,43.8 63,40.37 58.36,43.8 60.12,38.24 55.38,34.8 61.24,34.8"/>
  </g>
</svg>
